<svg width="20" height="12" viewBox="0 0 20 12" fill="none" xmlns="http://www.w3.org/2000/svg">
<path d="M18.7102 2.71L10.7102 10.71C10.6172 10.8037 10.5066 10.8781 10.3848 10.9289C10.2629 10.9797 10.1322 11.0058 10.0002 11.0058C9.86817 11.0058 9.73747 10.9797 9.61561 10.9289C9.49375 10.8781 9.38315 10.8037 9.29018 10.71L1.29019 2.71C1.10188 2.52169 0.996094 2.2663 0.996094 2C0.996094 1.7337 1.10188 1.4783 1.29019 1.29C1.47849 1.10169 1.73388 0.995907 2.00019 0.995907C2.26649 0.995907 2.52188 1.10169 2.71019 1.29L10.0002 8.59L17.2902 1.29C17.4785 1.10169 17.7339 0.995907 18.0002 0.995907C18.2665 0.995907 18.5219 1.10169 18.7102 1.29C18.8985 1.4783 19.0043 1.7337 19.0043 2C19.0043 2.2663 18.8985 2.52169 18.7102 2.71Z" fill="#071026"/>
</svg>
