<svg width="24" height="25" viewBox="0 0 24 25" fill="none" xmlns="http://www.w3.org/2000/svg">
<path d="M18.121 9.97597L18.3 10.4097L16.9128 11.7969H24V4.7097L22.3472 6.36252L21.8675 5.67078C19.7565 2.62672 16.3696 0.736203 12.7031 0.520813V5.91772C15.1035 6.1707 17.1844 7.70689 18.121 9.97597ZM0 20.2903L1.65281 18.6375L2.13253 19.3292C4.37789 22.567 8.06667 24.5 12 24.5C15.181 24.5 18.2341 23.2291 20.477 20.9923L16.6737 17.189C15.438 18.4245 13.7733 19.1198 12 19.1198C9.30863 19.1198 6.906 17.5121 5.87902 15.024L5.7 14.5903L7.08717 13.2031H0V20.2903ZM4.2097 0.5L5.86256 2.15281L5.17078 2.63253C2.12667 4.74359 0.235922 8.13036 0.020625 11.7969H5.41772C5.6707 9.39645 7.20684 7.31558 9.47597 6.37902L9.90966 6.2L11.2969 7.58722V0.5H4.2097Z" fill="#071026"/>
</svg>
