<svg width="21" height="26" viewBox="0 0 21 26" fill="none" xmlns="http://www.w3.org/2000/svg">
<path d="M16.7837 0.448975H3.93686C2.89303 0.471939 1.90116 0.896694 1.17869 1.63011C0.45623 2.36354 0.0621328 3.34577 0.0828053 4.36147V22.7115C0.0801715 23.2108 0.22536 23.7003 0.501018 24.1214C0.776676 24.5426 1.17114 24.8776 1.63727 25.0865C2.08533 25.2707 2.57792 25.3274 3.05777 25.2499C3.53762 25.1725 3.98503 24.9641 4.34796 24.649L10.3603 19.324L16.3726 24.649C16.83 25.0633 17.4307 25.2953 18.0555 25.299C18.4093 25.296 18.7589 25.2238 19.0833 25.0865C19.5494 24.8776 19.9439 24.5426 20.2195 24.1214C20.4952 23.7003 20.6404 23.2108 20.6378 22.7115V4.36147C20.6584 3.34577 20.2643 2.36354 19.5419 1.63011C18.8194 0.896694 17.8275 0.471939 16.7837 0.448975Z" fill="#F8D521"/>
</svg>
