<svg width="34" height="41" viewBox="0 0 34 41" fill="none" xmlns="http://www.w3.org/2000/svg">
<path d="M26.8679 0H6.20125C4.52205 0.0375091 2.92642 0.731275 1.7642 1.9292C0.601972 3.12712 -0.0320105 4.73143 0.00124528 6.39042V36.3621C-0.0029917 37.1776 0.230572 37.9771 0.674022 38.665C1.11747 39.3529 1.75205 39.9001 2.50191 40.2412C3.2227 40.5421 4.01512 40.6347 4.78706 40.5082C5.559 40.3817 6.27873 40.0413 6.86258 39.5267L16.5346 30.8292L26.2066 39.5267C26.9424 40.2033 27.9087 40.5823 28.9139 40.5883C29.483 40.5835 30.0453 40.4655 30.5672 40.2412C31.3171 39.9001 31.9517 39.3529 32.3951 38.665C32.8386 37.9771 33.0722 37.1776 33.0679 36.3621V6.39042C33.1012 4.73143 32.4672 3.12712 31.305 1.9292C30.1427 0.731275 28.5471 0.0375091 26.8679 0Z" fill="#F8D521"/>
</svg>
