<svg width="36" height="36" viewBox="0 0 36 36" fill="none" xmlns="http://www.w3.org/2000/svg">
<path d="M34.6356 14.8703L19.9514 14.8696C19.3029 14.8696 18.7773 15.3952 18.7773 16.0436V20.7345C18.7773 21.3828 19.3029 21.9085 19.9513 21.9085H28.2206C27.3151 24.2584 25.625 26.2264 23.4688 27.4769L26.9948 33.5807C32.6509 30.3095 35.9949 24.5699 35.9949 18.1448C35.9949 17.23 35.9275 16.576 35.7926 15.8396C35.6901 15.2801 35.2044 14.8703 34.6356 14.8703Z" fill="#167EE6"/>
<path d="M17.9986 28.9571C13.9518 28.9571 10.419 26.746 8.52159 23.4741L2.41797 26.9922C5.52406 32.3755 11.3428 36.0007 17.9986 36.0007C21.2638 36.0007 24.3447 35.1215 26.9987 33.5895V33.5811L23.4727 27.4772C21.8599 28.4126 19.9935 28.9571 17.9986 28.9571Z" fill="#12B347"/>
<path d="M27.004 33.5898V33.5814L23.478 27.4775C21.8652 28.4129 19.9989 28.9574 18.0039 28.9574V36.001C21.269 36.001 24.3501 35.1219 27.004 33.5898Z" fill="#0F993E"/>
<path d="M7.04747 18.0005C7.04747 16.0058 7.59184 14.1396 8.52708 12.5268L2.42346 9.00879C0.882963 11.6545 0.00390625 14.727 0.00390625 18.0005C0.00390625 21.274 0.882963 24.3466 2.42346 26.9923L8.52708 23.4742C7.59184 21.8614 7.04747 19.9952 7.04747 18.0005Z" fill="#FFD500"/>
<path d="M17.9986 7.04357C20.6376 7.04357 23.0615 7.98127 24.9549 9.54103C25.422 9.92578 26.1008 9.89801 26.5287 9.47015L29.8524 6.14644C30.3378 5.661 30.3033 4.86639 29.7847 4.41652C26.6125 1.66453 22.4851 0 17.9986 0C11.3428 0 5.52406 3.62514 2.41797 9.00847L8.52159 12.5265C10.419 9.25464 13.9518 7.04357 17.9986 7.04357Z" fill="#FF4B26"/>
<path d="M24.9601 9.54103C25.4272 9.92578 26.1062 9.89801 26.534 9.47015L29.8577 6.14644C30.3431 5.661 30.3085 4.86639 29.79 4.41652C26.6178 1.66446 22.4904 0 18.0039 0V7.04357C20.6428 7.04357 23.0668 7.98127 24.9601 9.54103Z" fill="#D93F21"/>
</svg>
