<svg width="24" height="25" viewBox="0 0 24 25" fill="none" xmlns="http://www.w3.org/2000/svg">
<path d="M16 16.5H8.41548C7.23086 16.5 6.63856 16.5 6.11625 16.702C5.84326 16.8076 5.58719 16.9526 5.35619 17.1324C4.91422 17.4763 4.60948 17.9842 4 19V7.5C4 5.61438 4 4.67157 4.58579 4.08579C5.17157 3.5 6.11438 3.5 8 3.5H16C17.8856 3.5 18.8284 3.5 19.4142 4.08579C20 4.67157 20 5.61438 20 7.5V12.5C20 14.3856 20 15.3284 19.4142 15.9142C18.8284 16.5 17.8856 16.5 16 16.5Z" fill="#071026"/>
<path d="M20 12.5V17.5C20 19.3856 20 20.3284 19.4142 20.9142C18.8284 21.5 17.8856 21.5 16 21.5H6.5C5.11929 21.5 4 20.3807 4 19V19C4 17.6193 5.11929 16.5 6.5 16.5H16C17.8856 16.5 18.8284 16.5 19.4142 15.9142C20 15.3284 20 14.3856 20 12.5V7.5C20 5.61438 20 4.67157 19.4142 4.08579C18.8284 3.5 17.8856 3.5 16 3.5H8C6.11438 3.5 5.17157 3.5 4.58579 4.08579C4 4.67157 4 5.61438 4 7.5V19" stroke="#071026" stroke-width="1.2"/>
<path d="M9 10.5L10.2929 11.7929C10.6834 12.1834 11.3166 12.1834 11.7071 11.7929L15 8.5" stroke="#071026" stroke-width="1.2" stroke-linecap="round"/>
</svg>
