<svg width="24" height="25" viewBox="0 0 24 25" fill="none" xmlns="http://www.w3.org/2000/svg">
<path d="M2 9.5C2 7.61438 2 6.67157 2.58579 6.08579C3.17157 5.5 4.11438 5.5 6 5.5H18C19.8856 5.5 20.8284 5.5 21.4142 6.08579C22 6.67157 22 7.61438 22 9.5C22 9.9714 22 10.2071 21.8536 10.3536C21.7071 10.5 21.4714 10.5 21 10.5H3C2.5286 10.5 2.29289 10.5 2.14645 10.3536C2 10.2071 2 9.9714 2 9.5Z" fill="#071026"/>
<path d="M2 18.5C2 20.3856 2 21.3284 2.58579 21.9142C3.17157 22.5 4.11438 22.5 6 22.5H18C19.8856 22.5 20.8284 22.5 21.4142 21.9142C22 21.3284 22 20.3856 22 18.5V13.5C22 13.0286 22 12.7929 21.8536 12.6464C21.7071 12.5 21.4714 12.5 21 12.5H3C2.5286 12.5 2.29289 12.5 2.14645 12.6464C2 12.7929 2 13.0286 2 13.5V18.5Z" fill="#071026"/>
<path d="M7 3.5L7 6.5" stroke="#071026" stroke-width="2" stroke-linecap="round"/>
<path d="M17 3.5L17 6.5" stroke="#071026" stroke-width="2" stroke-linecap="round"/>
</svg>
