<svg width="24" height="25" viewBox="0 0 24 25" fill="none" xmlns="http://www.w3.org/2000/svg">
<path d="M12.6952 4.39179L21.813 9.68979C21.8939 9.73672 21.9611 9.8041 22.0079 9.88518C22.0546 9.96627 22.0792 10.0582 22.0792 10.1518C22.0792 10.2454 22.0546 10.3373 22.0079 10.4184C21.9611 10.4995 21.8939 10.5669 21.813 10.6138L12.6952 15.9118C12.4202 16.0717 12.1077 16.156 11.7896 16.156C11.4714 16.156 11.159 16.0717 10.884 15.9118L1.76621 10.6138C1.68525 10.5669 1.61804 10.4995 1.57131 10.4184C1.52459 10.3373 1.5 10.2454 1.5 10.1518C1.5 10.0582 1.52459 9.96627 1.57131 9.88518C1.61804 9.8041 1.68525 9.73672 1.76621 9.68979L10.884 4.39179C11.1591 4.23223 11.4715 4.14819 11.7896 4.14819C12.1076 4.14819 12.4201 4.23223 12.6952 4.39179Z" fill="#071026"/>
<path d="M12.6952 4.39179L21.813 9.68979C21.8939 9.73672 21.9611 9.8041 22.0079 9.88518C22.0546 9.96627 22.0792 10.0582 22.0792 10.1518C22.0792 10.2454 22.0546 10.3373 22.0079 10.4184C21.9611 10.4995 21.8939 10.5669 21.813 10.6138L12.6952 15.9118C12.4202 16.0717 12.1077 16.156 11.7896 16.156C11.4714 16.156 11.159 16.0717 10.884 15.9118L1.76621 10.6138C1.68525 10.5669 1.61804 10.4995 1.57131 10.4184C1.52459 10.3373 1.5 10.2454 1.5 10.1518C1.5 10.0582 1.52459 9.96627 1.57131 9.88518C1.61804 9.8041 1.68525 9.73672 1.76621 9.68979L10.884 4.39179C11.1591 4.23223 11.4715 4.14819 11.7896 4.14819C12.1076 4.14819 12.4201 4.23223 12.6952 4.39179Z" fill="#071026"/>
<path d="M21.8103 10.6175L18.7128 12.4175L12.6978 15.9125C12.1353 16.235 11.4453 16.235 10.8828 15.9125L4.86778 12.4175L1.76278 10.6175C1.68211 10.5696 1.61528 10.5016 1.56887 10.42C1.52245 10.3385 1.49805 10.2463 1.49805 10.1525C1.49805 10.0587 1.52245 9.9665 1.56887 9.88497C1.61528 9.80344 1.68211 9.7354 1.76278 9.68751L10.8828 4.39251C11.4453 4.07001 12.1353 4.07001 12.6978 4.39251L21.8103 9.68751C22.1703 9.89751 22.1703 10.4075 21.8103 10.6175Z" fill="#071026"/>
<path d="M13.2637 16.8853C12.8114 17.144 12.3044 17.2798 11.7907 17.2798C11.2769 17.2798 10.7699 17.144 10.3237 16.889L4.86816 13.7188V16.535C4.86816 17.165 5.19816 17.7425 5.74566 18.0575L9.54816 20.255C10.2296 20.6457 11.0014 20.8513 11.7869 20.8513C12.5724 20.8513 13.3442 20.6457 14.0257 20.255L17.8357 18.0575C18.3757 17.7425 18.7132 17.165 18.7132 16.535V13.7188L13.2637 16.8853ZM21.9757 17.5303V11.8228L20.6249 12.6073V17.5295C20.4125 17.6738 20.252 17.8824 20.1669 18.1246C20.0818 18.3668 20.0765 18.63 20.152 18.8754C20.2274 19.1208 20.3795 19.3356 20.5859 19.4882C20.7924 19.6409 21.0423 19.7233 21.2991 19.7234C21.5558 19.7236 21.8059 19.6414 22.0125 19.489C22.2191 19.3366 22.3714 19.122 22.4471 18.8767C22.5228 18.6313 22.5179 18.3682 22.433 18.1259C22.3482 17.8835 22.1879 17.6748 21.9757 17.5303Z" fill="#071026"/>
</svg>
