<svg width="22" height="20" viewBox="0 0 22 20" fill="none" xmlns="http://www.w3.org/2000/svg">
<path d="M21.5 15.5V17.375C21.5 18.4093 20.6585 19.25 19.625 19.25H3.5C1.8455 19.25 0.5 17.9045 0.5 16.25V3.5C0.5 1.8455 1.8455 0.5 3.5 0.5H17.375C17.5227 0.5 17.669 0.529099 17.8055 0.585635C17.942 0.642172 18.066 0.725039 18.1705 0.829505C18.275 0.933971 18.3578 1.05799 18.4144 1.19448C18.4709 1.33097 18.5 1.47726 18.5 1.625C18.5 1.77274 18.4709 1.91903 18.4144 2.05552C18.3578 2.19201 18.275 2.31603 18.1705 2.4205C18.066 2.52496 17.942 2.60783 17.8055 2.66436C17.669 2.7209 17.5227 2.75 17.375 2.75H3.5C3.30689 2.75864 3.12455 2.84143 2.99096 2.98114C2.85736 3.12084 2.7828 3.3067 2.7828 3.5C2.7828 3.6933 2.85736 3.87916 2.99096 4.01886C3.12455 4.15857 3.30689 4.24136 3.5 4.25H19.625C20.6585 4.25 21.5 5.09075 21.5 6.125V8H17.75C15.6823 8 14 9.68225 14 11.75C14 13.8177 15.6823 15.5 17.75 15.5H21.5Z" fill="#071026"/>
<path d="M21.5 9.5V14H17.75C17.1533 14 16.581 13.7629 16.159 13.341C15.7371 12.919 15.5 12.3467 15.5 11.75C15.5 11.1533 15.7371 10.581 16.159 10.159C16.581 9.73705 17.1533 9.5 17.75 9.5H21.5Z" fill="#071026"/>
</svg>
