<svg width="24" height="25" viewBox="0 0 24 25" fill="none" xmlns="http://www.w3.org/2000/svg">
<path fill-rule="evenodd" clip-rule="evenodd" d="M6.45974 6.5C4.02554 6.5 2.15569 8.65595 2.49994 11.0657L3.52014 18.2071C3.87203 20.6704 5.98164 22.5 8.46989 22.5H15.5315C18.0198 22.5 20.1294 20.6704 20.4813 18.2071L21.5015 11.0657C21.8457 8.65595 19.9759 6.5 17.5417 6.5H6.45974Z" fill="#071026"/>
<path fill-rule="evenodd" clip-rule="evenodd" d="M7.00037 5.26363C7.84737 3.56962 9.57859 2.5 11.4724 2.5H12.5281C14.422 2.5 16.1533 3.57003 17.0003 5.26396L17.8946 7.05279C18.1416 7.54677 17.9414 8.14744 17.4474 8.39443C16.9534 8.64142 16.3528 8.44119 16.1058 7.94721L15.2114 6.15838C14.7032 5.14202 13.6644 4.5 12.5281 4.5H11.4724C10.3359 4.5 9.29736 5.14179 8.78923 6.15805L7.89465 7.94721C7.64766 8.44119 7.04698 8.64142 6.55301 8.39443C6.05903 8.14744 5.8588 7.54676 6.10579 7.05279L7.00037 5.26363Z" fill="#071026"/>
</svg>
