<svg width="16" height="21" viewBox="0 0 16 21" fill="none" xmlns="http://www.w3.org/2000/svg">
<path fill-rule="evenodd" clip-rule="evenodd" d="M8 1C8 0.723858 7.77614 0.5 7.5 0.5H4C1.79086 0.5 0 2.29086 0 4.5V16.5C0 18.7091 1.79086 20.5 4 20.5H12C14.2091 20.5 16 18.7091 16 16.5V9C16 8.72386 15.7761 8.5 15.5 8.5H13C10.2386 8.5 8 6.26142 8 3.5V1ZM15.2195 6.5C15.552 6.5 15.7909 6.17893 15.6312 5.8873C15.4956 5.63969 15.3245 5.41032 15.1213 5.20711L11.2929 1.37868C11.0897 1.17546 10.8603 1.00441 10.6127 0.868804C10.3211 0.709086 10 0.948045 10 1.28055V3.5C10 5.15685 11.3431 6.5 13 6.5H15.2195Z" fill="#071026"/>
</svg>
