<svg width="20" height="21" viewBox="0 0 20 21" fill="none" xmlns="http://www.w3.org/2000/svg">
<path fill-rule="evenodd" clip-rule="evenodd" d="M10 0.5C4.47715 0.5 0 4.97715 0 10.5C0 16.0228 4.47715 20.5 10 20.5C15.5228 20.5 20 16.0228 20 10.5C20 4.97715 15.5228 0.5 10 0.5ZM10.2666 9.5C10.8189 9.5 11.2666 9.94771 11.2666 10.5V14.5C11.2666 15.0523 10.8189 15.5 10.2666 15.5C9.71432 15.5 9.2666 15.0523 9.2666 14.5V10.5C9.2666 9.94771 9.71432 9.5 10.2666 9.5ZM9.2666 6.5C9.2666 5.94772 9.71432 5.5 10.2666 5.5H10.2766C10.8289 5.5 11.2766 5.94772 11.2766 6.5C11.2766 7.05228 10.8289 7.5 10.2766 7.5H10.2666C9.71432 7.5 9.2666 7.05228 9.2666 6.5Z" fill="#071026"/>
</svg>
