<svg width="149" height="144" viewBox="0 0 149 144" fill="none" xmlns="http://www.w3.org/2000/svg">
<g clip-path="url(#clip0_97_710)">
<path d="M147.117 85.6071C145.948 87.7111 144.489 89.6652 143.084 91.6318C141.564 93.7889 140.13 96.0021 139.277 98.4994C137.996 102.245 138.139 106.35 137.515 110.268C135.796 121.234 128.028 130.615 118.453 136.118C108.879 141.621 97.6668 143.638 86.6436 143.959C75.6205 144.281 64.616 143.001 53.6115 142.352C47.3134 141.977 40.7672 141.759 35.1827 138.84C31.6148 136.992 28.6675 134.139 25.9373 131.167C8.63161 112.241 -0.87441 86.3251 0.0656436 60.6373C0.282818 54.6813 1.04913 48.6816 3.16813 43.1126C9.46928 26.6835 26.1265 17.0409 41.9492 9.48658C50.8254 5.23807 60.015 1.18622 69.7878 0.227881C75.6515 -0.343375 81.5618 0.227881 87.3727 1.18622C99.4941 3.19029 111.783 7.18596 120.712 15.6861C130.165 24.6826 134.509 37.3314 138.579 49.4214C140.714 55.8051 142.612 62.4666 145.606 68.51C145.979 69.2592 146.329 69.9866 146.667 70.6952C149.01 75.646 150.285 79.9289 147.117 85.6071Z" fill="#EAF3FA"/>
<path opacity="0.51" d="M17.2594 75.2434C15.249 75.2434 12.9997 75.3058 11.5912 76.7542C10.1827 78.2027 10.1671 80.5532 11.0265 82.3731C11.8859 84.193 13.4558 85.5228 15.0598 86.7215C28.0716 96.5047 44.8436 99.6856 58.87 107.924C67.3708 112.918 75.6017 119.989 85.4428 119.826C93.2424 119.698 100.133 114.969 106.493 110.421C107.061 110.015 107.672 109.541 107.793 108.86C107.97 107.867 107.064 107.053 106.242 106.459L77.0785 85.0889C73.5602 82.5105 70.0079 79.9133 66.0367 78.1184C51.5946 71.563 32.6726 75.3589 17.2594 75.2434Z" fill="#0091EA"/>
<path d="M39.197 89.6496C39.197 89.6496 30.7241 81.9517 39.1195 72.9895L64.0759 58.961C66.2443 58.9006 68.392 59.3993 70.3149 60.4094C73.2933 62.0608 108.621 89.8587 111.392 92.6463C114.162 95.4339 114.677 101.122 114.677 101.122C114.677 101.122 114.885 102.994 114.165 103.806C113.446 104.618 89.5193 117.757 88.5948 117.541C87.6703 117.326 84.4871 116.093 84.4871 116.093L39.197 89.6496Z" fill="#0091EA"/>
<path d="M70.2556 39.7725C70.2628 39.5381 70.3283 39.3093 70.4462 39.107C70.564 38.9047 70.7304 38.7354 70.9302 38.6146C71.1299 38.4938 71.3565 38.4253 71.5894 38.4154C71.8222 38.4056 72.0538 38.4546 72.2629 38.5582L97.2317 50.7481C97.2317 50.7481 98.8884 51.7938 98.8326 53.7105C98.7767 55.6271 98.8326 70.8981 98.8326 70.8981C98.8326 70.8981 99.0311 72.6274 96.3072 71.026C93.5832 69.4247 71.1491 56.2483 71.1491 56.2483C71.1491 56.2483 70.1656 55.8394 70.0198 53.3047C69.905 51.3412 70.1315 43.5871 70.2556 39.7725Z" fill="#0091EA"/>
<path d="M70.2556 39.7725C70.2628 39.5381 70.3283 39.3093 70.4462 39.107C70.564 38.9047 70.7304 38.7354 70.9302 38.6146C71.1299 38.4938 71.3565 38.4253 71.5894 38.4154C71.8222 38.4056 72.0538 38.4546 72.2629 38.5582L97.2317 50.7481C97.2317 50.7481 98.8884 51.7938 98.8326 53.7105C98.7767 55.6271 98.8326 70.8981 98.8326 70.8981C98.8326 70.8981 99.0311 72.6274 96.3072 71.026C93.5832 69.4247 71.1491 56.2483 71.1491 56.2483C71.1491 56.2483 70.1656 55.8394 70.0198 53.3047C69.905 51.3412 70.1315 43.5871 70.2556 39.7725Z" fill="url(#paint0_linear_97_710)"/>
<path d="M69.8676 40.5341C69.8756 40.3001 69.9416 40.0718 70.0597 39.8699C70.1777 39.6681 70.3441 39.4992 70.5435 39.3785C70.743 39.2578 70.9693 39.1893 71.2018 39.179C71.4343 39.1688 71.6657 39.2172 71.8749 39.3198L96.8468 51.5222C96.8468 51.5222 98.5036 52.568 98.4446 54.4878C98.3857 56.4075 98.4446 71.6722 98.4446 71.6722C98.4446 71.6722 98.6463 73.4016 95.9223 71.8002C93.1983 70.1988 70.7642 57.0256 70.7642 57.0256C70.7642 57.0256 69.7807 56.6167 69.6318 54.0788C69.517 52.1185 69.7466 44.3644 69.8676 40.5341Z" fill="#0091EA"/>
<path d="M69.542 49.0437L98.1935 64.5425L98.8295 70.8981L69.632 54.082L69.542 49.0437Z" fill="url(#paint1_linear_97_710)"/>
<path d="M147.117 85.6071C145.947 87.7111 144.489 89.6652 143.083 91.6318C140.654 90.8826 137.775 90.4082 136.125 88.4603C123.916 74.0478 117.581 74.2569 106.651 69.5027C98.9474 66.1439 90.1333 63.9306 83.4257 58.833C82.3305 58.0089 81.2136 56.7072 81.7069 55.4305C82.2002 54.1537 83.798 53.9446 85.1197 53.9571C88.7098 53.9841 92.2836 54.4452 95.7643 55.3306C96.1746 55.4796 96.6174 55.5141 97.0456 55.4305C97.7995 55.212 98.1501 54.3067 98.1191 53.5169C97.9981 51.0477 95.9474 50.0488 93.7074 49.0468C90.4466 47.5765 86.8478 45.6661 83.5808 44.202C86.8291 44.3893 89.8386 42.5944 93.0434 41.9982C94.32 41.7888 95.6097 41.6709 96.9029 41.6454C100.152 41.5247 103.406 41.4072 106.663 41.2927C107.759 41.249 108.885 41.2053 109.936 41.5237C111.177 41.9108 112.223 42.7474 113.197 43.6152C118.161 47.9854 122.157 53.3484 126.6 58.2587C131.043 63.169 145.323 69.9959 146.679 70.6889C149.009 75.646 150.284 79.9289 147.117 85.6071Z" fill="#F3A984"/>
<path d="M37.8874 56.9413C33.5439 51.157 25.2231 49.3621 21.2705 43.3061C28.1115 39.3136 35.9484 37.4656 43.6549 35.6707C45.7677 38.6112 48.8361 40.6652 51.6966 42.8847C54.5571 45.1042 57.3648 47.667 58.5748 51.0852C59.3256 53.2079 59.4032 55.5054 59.4714 57.7561L59.5707 61.0525C59.6256 61.3174 59.5836 61.5933 59.4525 61.8296C59.3214 62.0658 59.11 62.2466 58.8571 62.3386C56.9041 63.5338 54.8841 64.6146 52.8073 65.5757C51.6252 66.097 50.4091 66.5403 49.2456 67.1053C47.2786 68.0574 45.5226 69.3466 43.7884 70.6733C41.508 72.4214 41.8245 69.7025 41.6166 67.92C41.1326 64.0586 40.2577 60.0942 37.8874 56.9413Z" fill="white"/>
<path d="M39.1191 72.9896C39.1191 72.9896 63.4581 59.1171 64.0755 58.961C64.6929 58.805 68.9278 59.3481 71.931 61.9078C74.9342 64.4676 91.2626 77.4066 91.2626 77.4066C91.2626 77.4066 91.6473 78.88 91.0268 79.7291C90.4063 80.5782 71.0003 91.663 68.9992 91.1199C66.9981 90.5767 47.6696 70.1988 39.1191 72.9896Z" fill="#0091EA"/>
<path d="M39.1191 72.9896C39.1191 72.9896 63.4581 59.1171 64.0755 58.961C64.6929 58.805 68.9278 59.3481 71.931 61.9078C74.9342 64.4676 91.2626 77.4066 91.2626 77.4066C91.2626 77.4066 91.6473 78.88 91.0268 79.7291C90.4063 80.5782 71.0003 91.663 68.9992 91.1199C66.9981 90.5767 47.6696 70.1988 39.1191 72.9896Z" fill="url(#paint2_linear_97_710)"/>
<path d="M39.0412 74.6159C39.0412 74.6159 39.8138 71.6722 47.8244 77.7157C55.835 83.7591 90.8 112.125 90.8 112.125L89.8693 116.929C89.8693 116.929 39.9565 92.2842 39.1871 89.6496C38.4176 87.0149 32.4174 80.9777 39.0412 74.6159Z" fill="url(#paint3_linear_97_710)"/>
<path d="M92.0321 111.507L113.445 99.1081L114.165 103.809L91.2627 115.537L92.0321 111.507Z" fill="url(#paint4_linear_97_710)"/>
<path d="M83.1371 94.1322L78.6509 96.7419L74.4688 93.4267L79.1101 90.9263L83.1371 94.1322Z" fill="url(#paint5_linear_97_710)"/>
<path d="M87.9617 91.3228L83.1374 94.1322L79.1104 90.9263L84.0992 88.2511L87.9617 91.3228Z" fill="url(#paint6_linear_97_710)"/>
<path d="M92.3295 88.7818L87.9612 91.3228L84.0986 88.2511L88.6065 85.8287H88.619L92.3295 88.7818Z" fill="url(#paint7_linear_97_710)"/>
<path d="M96.8469 86.1503L92.3297 88.7818L88.6191 85.8287L93.2139 83.3533L96.8469 86.1503Z" fill="url(#paint8_linear_97_710)"/>
<path d="M101.377 89.6277L96.7604 92.3155L92.3301 88.7818L96.8473 86.1503L101.377 89.6277Z" fill="url(#paint9_linear_97_710)"/>
<path d="M105.612 92.8992L100.918 95.6275L96.7607 92.3155L101.377 89.6277L105.612 92.8992Z" fill="url(#paint10_linear_97_710)"/>
<path d="M109.596 95.9584L104.846 98.7553L100.918 95.6275L105.612 92.8992L109.596 95.9584Z" fill="url(#paint11_linear_97_710)"/>
<path d="M104.845 98.7554L100.502 101.309L96.5615 98.1716L100.917 95.6275L104.845 98.7554Z" fill="url(#paint12_linear_97_710)"/>
<path d="M100.502 101.309L95.6992 104.14L91.7373 100.981L96.5617 98.1716L100.502 101.309Z" fill="url(#paint13_linear_97_710)"/>
<path d="M95.6988 104.14L91.2654 106.75L87.2725 103.578L91.7369 100.981L95.6988 104.14Z" fill="url(#paint14_linear_97_710)"/>
<path d="M91.7377 100.981L87.2733 103.578L83.1035 100.276L87.5804 97.6659L91.7377 100.981Z" fill="url(#paint15_linear_97_710)"/>
<path d="M87.5803 97.6659L83.1034 100.276L78.6514 96.7419L83.1376 94.1322L87.5803 97.6659Z" fill="url(#paint16_linear_97_710)"/>
<path d="M96.7606 92.3155L92.3954 94.8596L87.9619 91.3228L92.3302 88.7818L96.7606 92.3155Z" fill="url(#paint17_linear_97_710)"/>
<path d="M92.3955 94.8596L87.5805 97.6659L83.1377 94.1322L87.9621 91.3228L92.3955 94.8596Z" fill="url(#paint18_linear_97_710)"/>
<path d="M100.918 95.6275L96.5621 98.1716L92.3955 94.8596L96.7607 92.3155L100.918 95.6275Z" fill="url(#paint19_linear_97_710)"/>
<path d="M96.5618 98.1716L91.7374 100.981L87.5801 97.6659L92.3951 94.8596L96.5618 98.1716Z" fill="url(#paint20_linear_97_710)"/>
</g>
<defs>
<linearGradient id="paint0_linear_97_710" x1="69.9857" y1="55.0528" x2="98.8357" y2="55.0528" gradientUnits="userSpaceOnUse">
<stop stop-color="#010101" stop-opacity="0"/>
<stop offset="0.95" stop-color="#010101"/>
</linearGradient>
<linearGradient id="paint1_linear_97_710" x1="86.6305" y1="53.0268" x2="78.3249" y2="76.3475" gradientUnits="userSpaceOnUse">
<stop stop-color="#010101" stop-opacity="0"/>
<stop offset="0.95" stop-color="#010101"/>
</linearGradient>
<linearGradient id="paint2_linear_97_710" x1="39.1191" y1="75.0405" x2="91.3836" y2="75.0405" gradientUnits="userSpaceOnUse">
<stop stop-color="#010101" stop-opacity="0"/>
<stop offset="0.95" stop-color="#010101"/>
</linearGradient>
<linearGradient id="paint3_linear_97_710" x1="70.5284" y1="80.7249" x2="37.2232" y2="156.211" gradientUnits="userSpaceOnUse">
<stop stop-color="#010101" stop-opacity="0"/>
<stop offset="0.95" stop-color="#010101"/>
</linearGradient>
<linearGradient id="paint4_linear_97_710" x1="110.585" y1="90.4831" x2="70.1643" y2="182.091" gradientUnits="userSpaceOnUse">
<stop stop-color="#010101" stop-opacity="0"/>
<stop offset="0.95" stop-color="#010101"/>
</linearGradient>
<linearGradient id="paint5_linear_97_710" x1="74.4719" y1="93.8357" x2="83.1371" y2="93.8357" gradientUnits="userSpaceOnUse">
<stop stop-color="white" stop-opacity="0"/>
<stop offset="0.66" stop-color="white"/>
</linearGradient>
<linearGradient id="paint6_linear_97_710" x1="79.1104" y1="91.1917" x2="87.9617" y2="91.1917" gradientUnits="userSpaceOnUse">
<stop stop-color="white" stop-opacity="0"/>
<stop offset="0.66" stop-color="white"/>
</linearGradient>
<linearGradient id="paint7_linear_97_710" x1="84.0986" y1="88.5758" x2="92.3264" y2="88.5758" gradientUnits="userSpaceOnUse">
<stop stop-color="white" stop-opacity="0"/>
<stop offset="0.66" stop-color="white"/>
</linearGradient>
<linearGradient id="paint8_linear_97_710" x1="88.6191" y1="86.066" x2="96.8469" y2="86.066" gradientUnits="userSpaceOnUse">
<stop stop-color="white" stop-opacity="0"/>
<stop offset="0.66" stop-color="white"/>
</linearGradient>
<linearGradient id="paint9_linear_97_710" x1="92.327" y1="89.2313" x2="101.377" y2="89.2313" gradientUnits="userSpaceOnUse">
<stop stop-color="white" stop-opacity="0"/>
<stop offset="0.66" stop-color="white"/>
</linearGradient>
<linearGradient id="paint10_linear_97_710" x1="96.7607" y1="92.6276" x2="105.612" y2="92.6276" gradientUnits="userSpaceOnUse">
<stop stop-color="white" stop-opacity="0"/>
<stop offset="0.66" stop-color="white"/>
</linearGradient>
<linearGradient id="paint11_linear_97_710" x1="100.918" y1="95.8273" x2="109.596" y2="95.8273" gradientUnits="userSpaceOnUse">
<stop stop-color="white" stop-opacity="0"/>
<stop offset="0.66" stop-color="white"/>
</linearGradient>
<linearGradient id="paint12_linear_97_710" x1="96.5615" y1="98.4682" x2="104.845" y2="98.4682" gradientUnits="userSpaceOnUse">
<stop stop-color="white" stop-opacity="0"/>
<stop offset="0.66" stop-color="white"/>
</linearGradient>
<linearGradient id="paint13_linear_97_710" x1="91.7373" y1="101.156" x2="100.502" y2="101.156" gradientUnits="userSpaceOnUse">
<stop stop-color="white" stop-opacity="0"/>
<stop offset="0.66" stop-color="white"/>
</linearGradient>
<linearGradient id="paint14_linear_97_710" x1="87.2725" y1="103.865" x2="95.6988" y2="103.865" gradientUnits="userSpaceOnUse">
<stop stop-color="white" stop-opacity="0"/>
<stop offset="0.66" stop-color="white"/>
</linearGradient>
<linearGradient id="paint15_linear_97_710" x1="83.1035" y1="100.622" x2="91.7377" y2="100.622" gradientUnits="userSpaceOnUse">
<stop stop-color="white" stop-opacity="0"/>
<stop offset="0.66" stop-color="white"/>
</linearGradient>
<linearGradient id="paint16_linear_97_710" x1="78.6514" y1="97.2039" x2="87.5803" y2="97.2039" gradientUnits="userSpaceOnUse">
<stop stop-color="white" stop-opacity="0"/>
<stop offset="0.66" stop-color="white"/>
</linearGradient>
<linearGradient id="paint17_linear_97_710" x1="87.9619" y1="91.8191" x2="96.7606" y2="91.8191" gradientUnits="userSpaceOnUse">
<stop stop-color="white" stop-opacity="0"/>
<stop offset="0.66" stop-color="white"/>
</linearGradient>
<linearGradient id="paint18_linear_97_710" x1="83.1377" y1="94.4943" x2="92.3955" y2="94.4943" gradientUnits="userSpaceOnUse">
<stop stop-color="white" stop-opacity="0"/>
<stop offset="0.66" stop-color="white"/>
</linearGradient>
<linearGradient id="paint19_linear_97_710" x1="92.3955" y1="95.2435" x2="100.918" y2="95.2435" gradientUnits="userSpaceOnUse">
<stop stop-color="white" stop-opacity="0"/>
<stop offset="0.66" stop-color="white"/>
</linearGradient>
<linearGradient id="paint20_linear_97_710" x1="87.5801" y1="97.9187" x2="96.5618" y2="97.9187" gradientUnits="userSpaceOnUse">
<stop stop-color="white" stop-opacity="0"/>
<stop offset="0.66" stop-color="white"/>
</linearGradient>
<clipPath id="clip0_97_710">
<rect width="149" height="144" fill="white"/>
</clipPath>
</defs>
</svg>
