<svg width="20" height="11" viewBox="0 0 20 11" fill="none" xmlns="http://www.w3.org/2000/svg">
<path d="M18.7102 2.21L10.7102 10.21C10.6172 10.3037 10.5066 10.3781 10.3848 10.4289C10.2629 10.4797 10.1322 10.5058 10.0002 10.5058C9.86817 10.5058 9.73747 10.4797 9.61561 10.4289C9.49375 10.3781 9.38315 10.3037 9.29018 10.21L1.29019 2.21C1.10188 2.0217 0.996094 1.7663 0.996094 1.5C0.996094 1.2337 1.10188 0.978306 1.29019 0.790002C1.47849 0.601699 1.73388 0.495911 2.00019 0.495911C2.26649 0.495911 2.52188 0.601699 2.71019 0.790002L10.0002 8.09L17.2902 0.790002C17.4785 0.601699 17.7339 0.495911 18.0002 0.495911C18.2665 0.495911 18.5219 0.601699 18.7102 0.790002C18.8985 0.978306 19.0043 1.2337 19.0043 1.5C19.0043 1.7663 18.8985 2.0217 18.7102 2.21Z" fill="#AEB8C5"/>
</svg>
