<svg width="21" height="27" viewBox="0 0 21 27" fill="none" xmlns="http://www.w3.org/2000/svg">
<path d="M16.7837 0.53064H3.93686C2.89303 0.55437 1.90116 0.993283 1.17869 1.75115C0.45623 2.50902 0.0621328 3.524 0.0828053 4.57356V23.5352C0.0801715 24.0512 0.22536 24.557 0.501018 24.9922C0.776676 25.4274 1.17114 25.7736 1.63727 25.9894C2.08533 26.1797 2.57792 26.2383 3.05777 26.1583C3.53762 26.0782 3.98503 25.8629 4.34796 25.5373L10.3603 20.0348L16.3726 25.5373C16.83 25.9654 17.4307 26.2051 18.0555 26.209C18.4093 26.2059 18.7589 26.1312 19.0833 25.9894C19.5494 25.7736 19.9439 25.4274 20.2195 24.9922C20.4952 24.557 20.6404 24.0512 20.6378 23.5352V4.57356C20.6584 3.524 20.2643 2.50902 19.5419 1.75115C18.8194 0.993283 17.8275 0.55437 16.7837 0.53064Z" fill="#D5D5D5"/>
</svg>
