<svg width="37" height="36" viewBox="0 0 37 36" fill="none" xmlns="http://www.w3.org/2000/svg">
<path d="M18.0039 36C27.945 36 36.0039 27.9411 36.0039 18C36.0039 8.05887 27.945 0 18.0039 0C8.06278 0 0.00390625 8.05887 0.00390625 18C0.00390625 27.9411 8.06278 36 18.0039 36Z" fill="#459DD3"/>
<path d="M28.3812 25.0446C27.8576 25.1182 25.2967 25.0446 25.1637 25.0446C24.5017 25.053 23.8631 24.8002 23.3862 24.3409C22.8462 23.8214 22.3635 23.2487 21.8358 22.7046C21.6797 22.5394 21.5108 22.3869 21.3306 22.2484C20.9092 21.9232 20.4919 21.9969 20.2935 22.4939C20.1385 23.031 20.0304 23.5806 19.9703 24.1364C19.9356 24.6396 19.6165 24.9546 19.0519 24.9894C18.7022 25.0078 18.3524 25.0139 18.0067 25.0057C16.7469 24.9977 15.5069 24.6913 14.3883 24.1119C13.1779 23.4374 12.1234 22.5153 11.2935 21.4057C9.92919 19.663 8.83897 17.7484 7.86533 15.7746C7.81419 15.6764 6.81601 13.5532 6.79147 13.453C6.70147 13.1175 6.79147 12.7964 7.0676 12.6859C7.24351 12.6184 10.5326 12.6859 10.5878 12.6859C10.8324 12.6838 11.0712 12.7596 11.2698 12.9023C11.4684 13.045 11.6164 13.2472 11.6924 13.4796C12.3004 15.0364 13.1328 16.496 14.1633 17.8119C14.3075 17.9878 14.4763 18.1421 14.6644 18.27C14.9324 18.4521 15.186 18.3887 15.2965 18.0798C15.4274 17.6513 15.5043 17.2081 15.5256 16.7605C15.544 15.8728 15.5256 15.2878 15.4765 14.4021C15.4437 13.8334 15.2433 13.3344 14.4047 13.1748C14.1469 13.1298 14.1244 12.9171 14.2901 12.7044C14.6358 12.2625 15.1083 12.193 15.6381 12.1664C16.4276 12.1214 17.2172 12.1521 18.0067 12.1664H18.1785C18.5221 12.1651 18.8649 12.2001 19.2012 12.2707C19.4 12.3109 19.5805 12.4143 19.7158 12.5654C19.8511 12.7165 19.9339 12.9073 19.9519 13.1094C19.9923 13.3334 20.0095 13.5609 20.0031 13.7884C19.9826 14.758 19.9356 15.7255 19.9253 16.695C19.9159 17.0789 19.9509 17.4626 20.0297 17.8384C20.1422 18.3539 20.496 18.4828 20.8478 18.1105C21.3034 17.6292 21.7212 17.1136 22.0976 16.5682C22.7632 15.5742 23.3122 14.507 23.734 13.3875C23.9631 12.8128 24.1431 12.6859 24.7567 12.6859H28.2462C28.4537 12.6823 28.6606 12.7099 28.8599 12.7678C28.9304 12.7863 28.9964 12.8192 29.0536 12.8644C29.1108 12.9096 29.1581 12.9661 29.1925 13.0305C29.2269 13.0948 29.2476 13.1655 29.2533 13.2382C29.2591 13.3109 29.2498 13.384 29.226 13.453C29.0542 14.218 28.641 14.8705 28.2033 15.4984C27.4935 16.5048 26.7449 17.4846 26.0187 18.4746C25.9269 18.6059 25.8429 18.7425 25.7672 18.8837C25.4931 19.3766 25.5135 19.6528 25.9103 20.0639C26.5444 20.7144 27.2215 21.3259 27.8331 21.9969C28.2821 22.4846 28.6873 23.0109 29.044 23.5698C29.4919 24.2632 29.2158 24.9259 28.3812 25.0446Z" fill="white"/>
</svg>
